<svg width="24" height="24" viewBox="0 0 24 24" fill="none" xmlns="http://www.w3.org/2000/svg">
<path d="M8.59889 4.46419L11.4916 1.58732C11.5909 1.47594 11.7127 1.38681 11.8489 1.32579C11.9851 1.26476 12.1327 1.23322 12.2819 1.23322C12.4312 1.23322 12.5787 1.26476 12.7149 1.32579C13.5479 1.69898 14.3633 2.23352 15.1706 2.73926C15.5668 2.98744 15.5514 3.61562 15.2165 3.94184C14.0627 5.2107 14.1104 7.22235 15.3231 8.43504C16.5358 9.64773 18.5475 9.69547 19.8163 8.54167C20.1416 8.20781 20.7684 8.19434 21.0133 8.59088C21.5323 9.43118 22.0825 10.279 22.4702 11.1443C22.5313 11.2805 22.5628 11.4281 22.5628 11.5773C22.5628 11.7266 22.5313 11.8741 22.4702 12.0104C22.4092 12.1466 22.3201 12.2683 22.2087 12.3677L19.3318 15.1971C22.0636 15.3623 23.3627 18.7878 21.4276 20.723C19.5396 22.611 16.0679 21.3752 15.9017 18.6272L13.009 21.5041C12.9097 21.6155 12.7879 21.7046 12.6517 21.7656C12.5155 21.8267 12.3679 21.8582 12.2187 21.8582C12.0694 21.8582 11.9219 21.8267 11.7857 21.7656C10.9784 21.4039 10.1925 20.8575 9.41872 20.3407C9.02378 20.0769 9.04907 19.4432 9.38929 19.1117C10.642 17.8504 10.6348 15.7488 9.37348 14.4961C8.11218 13.2434 6.01053 13.2506 4.75784 14.5119C4.42778 14.8507 3.79601 14.8731 3.53675 14.4775C2.99404 13.6493 2.41658 12.8091 2.03038 11.9471C1.96935 11.8109 1.93781 11.6634 1.93781 11.5141C1.93781 11.3648 1.96935 11.2173 2.03038 11.0811C2.0914 10.9449 2.18053 10.8231 2.29191 10.7238L5.16878 7.8943C2.40788 7.75502 1.16852 4.2598 3.06645 2.36186C4.99416 0.434157 8.46067 1.72434 8.59889 4.46419Z" fill="#FD4714" stroke="#222B48" stroke-width="2.475" stroke-linecap="round" stroke-linejoin="round"/>
</svg>
