<svg width="17" height="16" viewBox="0 0 17 16" fill="none" xmlns="http://www.w3.org/2000/svg">
<g clip-path="url(#clip0_1455_4038)">
<path d="M14.6935 0H2.52764C1.4094 0 0.5 0.904687 0.5 2.01714V14.12C0.5 15.2324 1.4094 16.1371 2.52764 16.1371H8.61058V10.59H6.58293V8.06855H8.61058V6.05142C8.61058 4.38022 9.97214 3.02571 11.652 3.02571H13.6797V5.54713H12.6659C12.1062 5.54713 11.652 5.49469 11.652 6.05142V8.06855H14.1866L13.1728 10.59H11.652V16.1371H14.6935C15.8118 16.1371 16.7212 15.2324 16.7212 14.12V2.01714C16.7212 0.904687 15.8118 0 14.6935 0Z" fill="#263347"/>
</g>
<defs>
<clipPath id="clip0_1455_4038">
<rect width="16" height="16" fill="white" transform="translate(0.5)"/>
</clipPath>
</defs>
<link xmlns="" rel="stylesheet" type="text/css"/></svg>