<svg width="17" height="16" viewBox="0 0 17 16" fill="none" xmlns="http://www.w3.org/2000/svg">
<g clip-path="url(#clip0_1455_4043)">
<path d="M16.4836 4.70404C16.4461 3.8539 16.3086 3.26944 16.1117 2.76299C15.9085 2.22541 15.596 1.74412 15.1864 1.34401C14.7863 0.937683 14.3019 0.621948 13.7705 0.421957C13.2611 0.22502 12.6797 0.0875415 11.8296 0.0500586C10.9731 0.00940124 10.7012 0 8.5289 0C6.3566 0 6.0847 0.00940124 5.23138 0.0468842C4.38124 0.0843671 3.79678 0.221967 3.29046 0.418783C2.75275 0.621948 2.27146 0.934509 1.87136 1.34401C1.46503 1.74412 1.14941 2.22859 0.949301 2.75994C0.752363 3.26944 0.614885 3.85073 0.577402 4.70087C0.536745 5.55736 0.527344 5.82926 0.527344 8.00156C0.527344 10.1739 0.536745 10.4458 0.574228 11.2991C0.611711 12.1492 0.749311 12.7337 0.946249 13.2401C1.14941 13.7777 1.46503 14.259 1.87136 14.6591C2.27146 15.0654 2.75593 15.3812 3.28728 15.5812C3.79678 15.7781 4.37807 15.9156 5.22833 15.9531C6.08153 15.9907 6.35355 16 8.52585 16C10.6981 16 10.9701 15.9907 11.8234 15.9531C12.6735 15.9156 13.258 15.7781 13.7643 15.5812C14.8396 15.1654 15.6897 14.3153 16.1055 13.2401C16.3023 12.7306 16.4399 12.1492 16.4773 11.2991C16.5148 10.4458 16.5242 10.1739 16.5242 8.00156C16.5242 5.82926 16.5211 5.55736 16.4836 4.70404ZM15.0427 11.2366C15.0083 12.018 14.8771 12.4399 14.7677 12.7212C14.4988 13.4183 13.9456 13.9715 13.2486 14.2403C12.9673 14.3497 12.5423 14.481 11.7639 14.5153C10.92 14.5529 10.6669 14.5622 8.53208 14.5622C6.39726 14.5622 6.14099 14.5529 5.30012 14.5153C4.51872 14.481 4.09676 14.3497 3.81546 14.2403C3.46859 14.1121 3.15286 13.909 2.89658 13.6433C2.6309 13.3838 2.42774 13.0713 2.29954 12.7244C2.19014 12.4431 2.05889 12.018 2.02458 11.2397C1.98698 10.3958 1.9777 10.1426 1.9777 8.00779C1.9777 5.87297 1.98698 5.6167 2.02458 4.77596C2.05889 3.99456 2.19014 3.5726 2.29954 3.29129C2.42774 2.9443 2.6309 2.62869 2.89975 2.37229C3.15908 2.10661 3.47164 1.90345 3.81863 1.77537C4.09994 1.66598 4.52507 1.53472 5.3033 1.50029C6.14721 1.46281 6.40044 1.45341 8.53513 1.45341C10.6731 1.45341 10.9262 1.46281 11.7671 1.50029C12.5485 1.53472 12.9704 1.66598 13.2517 1.77537C13.5986 1.90345 13.9144 2.10661 14.1706 2.37229C14.4363 2.63174 14.6395 2.9443 14.7677 3.29129C14.8771 3.5726 15.0083 3.99761 15.0427 4.77596C15.0802 5.61987 15.0896 5.87297 15.0896 8.00779C15.0896 10.1426 15.0802 10.3927 15.0427 11.2366Z" fill="#263347"/>
<path d="M8.5301 3.8916C6.26098 3.8916 4.41992 5.73254 4.41992 8.00178C4.41992 10.271 6.26098 12.112 8.5301 12.112C10.7993 12.112 12.6403 10.271 12.6403 8.00178C12.6403 5.73254 10.7993 3.8916 8.5301 3.8916ZM8.5301 10.668C7.05801 10.668 5.86393 9.47399 5.86393 8.00178C5.86393 6.52957 7.05801 5.33561 8.5301 5.33561C10.0023 5.33561 11.1963 6.52957 11.1963 8.00178C11.1963 9.47399 10.0023 10.668 8.5301 10.668Z" fill="#263347"/>
<path d="M13.763 3.72907C13.763 4.25896 13.3333 4.68861 12.8033 4.68861C12.2734 4.68861 11.8438 4.25896 11.8438 3.72907C11.8438 3.19906 12.2734 2.76953 12.8033 2.76953C13.3333 2.76953 13.763 3.19906 13.763 3.72907Z" fill="#263347"/>
</g>
<defs>
<clipPath id="clip0_1455_4043">
<rect width="16" height="16" fill="white" transform="translate(0.5)"/>
</clipPath>
</defs>
<link xmlns="" rel="stylesheet" type="text/css"/></svg>