<svg width="17" height="16" viewBox="0 0 17 16" fill="none" xmlns="http://www.w3.org/2000/svg">
<g clip-path="url(#clip0_1455_3898)">
<path d="M14.9 0H2.1C1.22 0 0.5 0.72 0.5 1.6V14.4C0.5 15.28 1.22 16 2.1 16H14.9C15.78 16 16.5 15.28 16.5 14.4V1.6C16.5 0.72 15.78 0 14.9 0ZM5.3 13.6H2.9V6.4H5.3V13.6ZM4.1 5.04C3.3 5.04 2.66 4.4 2.66 3.6C2.66 2.8 3.3 2.16 4.1 2.16C4.9 2.16 5.54 2.8 5.54 3.6C5.54 4.4 4.9 5.04 4.1 5.04ZM14.1 13.6H11.7V9.36C11.7 8.72003 11.14 8.16 10.5 8.16C9.86 8.16 9.3 8.72003 9.3 9.36V13.6H6.9V6.4H9.3V7.36C9.7 6.72 10.58 6.24 11.3 6.24C12.82 6.24 14.1 7.52 14.1 9.04V13.6Z" fill="#263347"/>
</g>
<defs>
<clipPath id="clip0_1455_3898">
<rect width="16" height="16" fill="white" transform="translate(0.5)"/>
</clipPath>
</defs>
<link xmlns="" rel="stylesheet" type="text/css"/></svg>