<svg width="24" height="24" viewBox="0 0 24 24" fill="none" xmlns="http://www.w3.org/2000/svg">
<path d="M12.1522 21.7728C17.798 21.7728 22.3749 17.1959 22.3749 11.55C22.3749 5.90414 17.798 1.32726 12.1522 1.32726C6.50627 1.32726 1.92938 5.90414 1.92938 11.55C1.92938 17.1959 6.50627 21.7728 12.1522 21.7728Z" fill="#FD4714" stroke="#222B48" stroke-width="2.475" stroke-linecap="round" stroke-linejoin="round"/>
<path d="M5.46796 15.4819C6.19791 15.4819 6.89796 15.1919 7.41412 14.6757C7.93027 14.1596 8.22024 13.4595 8.22024 12.7296V10.3705C8.22024 9.64052 8.51021 8.94046 9.02637 8.42431C9.54252 7.90816 10.2426 7.61819 10.9725 7.61819C11.7025 7.61819 12.4025 7.32821 12.9187 6.81206C13.4348 6.29591 13.7248 5.59585 13.7248 4.8659V1.44748C13.2122 1.36832 12.687 1.32726 12.1522 1.32726C6.50627 1.32726 1.92938 5.90414 1.92938 11.55C1.92938 12.9433 2.20811 14.2715 2.71286 15.4819H5.46796Z" fill="white" stroke="#222B48" stroke-width="2.475" stroke-linecap="round" stroke-linejoin="round"/>
<path d="M22.3737 11.3922C21.5865 10.984 20.7136 10.7686 19.8269 10.7637H16.477C15.747 10.7637 15.047 11.0536 14.5308 11.5698C14.0147 12.086 13.7247 12.786 13.7247 13.516C13.7247 14.2459 14.0147 14.946 14.5308 15.4621C15.047 15.9783 15.747 16.2682 16.477 16.2682C16.9984 16.2682 17.4984 16.4754 17.8671 16.844C18.2358 17.2127 18.4429 17.7128 18.4429 18.2342V19.6024H18.4508C20.8249 17.7428 22.3558 14.856 22.3747 11.6108V11.4892C22.3745 11.4569 22.3742 11.4245 22.3737 11.3922Z" fill="white" stroke="#222B48" stroke-width="2.475" stroke-linecap="round" stroke-linejoin="round"/>
</svg>
